<svg width="134" height="134" viewBox="0 0 134 134" fill="none" xmlns="http://www.w3.org/2000/svg">
<path fill-rule="evenodd" clip-rule="evenodd" d="M133.466 66.7331C133.466 103.586 103.586 133.466 66.7331 133.466C29.8797 133.466 0 103.586 0 66.7331C0 29.8797 29.8797 0 66.7331 0C103.586 0 133.466 29.8797 133.466 66.7331ZM66.7331 122.344C97.447 122.344 122.344 97.447 122.344 66.7331C122.344 36.0192 97.447 11.1222 66.7331 11.1222C36.0192 11.1222 11.1222 36.0192 11.1222 66.7331C11.1222 97.447 36.0192 122.344 66.7331 122.344Z" fill="white"/>
<path d="M64.7313 72.2942C63.2564 72.2942 61.8419 71.7083 60.799 70.6654C59.7561 69.6225 59.1702 68.208 59.1702 66.7331V27.8055C59.1702 26.3306 59.7561 24.9161 60.799 23.8732C61.8419 22.8303 63.2564 22.2444 64.7313 22.2444C66.2061 22.2444 67.6206 22.8303 68.6635 23.8732C69.7064 24.9161 70.2923 26.3306 70.2923 27.8055V66.7331C70.2923 68.208 69.7064 69.6225 68.6635 70.6654C67.6206 71.7083 66.2061 72.2942 64.7313 72.2942Z" fill="white"/>
<path d="M98.4426 86.2081C97.7052 87.4854 96.4905 88.4173 95.0659 88.799C93.6413 89.1807 92.1234 88.9809 90.8462 88.2435L61.9508 71.5602C60.6839 70.8175 59.7622 69.6039 59.3869 68.1842C59.0115 66.7645 59.213 65.2539 59.9472 63.9822C60.6815 62.7104 61.889 61.7807 63.3062 61.3959C64.7234 61.0112 66.2353 61.2026 67.5118 61.9284L96.4073 78.6117C97.6845 79.3491 98.6165 80.5638 98.9982 81.9884C99.3799 83.413 99.18 84.9309 98.4426 86.2081V86.2081Z" fill="white"/>
</svg>
