<svg width="121" height="134" viewBox="0 0 121 134" fill="none" xmlns="http://www.w3.org/2000/svg">
<path d="M32.5524 3.19651C33.4333 1.58157 34.8614 0 36.7032 0H46.7131C50.3968 0 53.3865 2.98964 53.3865 6.67331C53.3865 10.357 50.3968 13.3466 46.7131 13.3466H40.0398C36.3562 13.3466 33.3665 16.3363 33.3665 20.0199V86.753C33.3665 90.4366 36.3562 93.4263 40.0398 93.4263H46.7131C50.3968 93.4263 53.3865 96.4159 53.3865 100.1C53.3865 103.783 50.3968 106.773 46.7131 106.773H36.7032C34.8614 106.773 33.4333 105.191 32.5524 103.57C31.4179 101.501 29.2224 100.1 26.6932 100.1C24.164 100.1 21.9685 101.501 20.8341 103.57C19.9532 105.191 18.5251 106.773 16.6833 106.773H6.67331C2.98964 106.773 0 103.783 0 100.1C0 96.4159 2.98964 93.4263 6.67331 93.4263H13.3466C17.0303 93.4263 20.0199 90.4366 20.0199 86.753V20.0199C20.0199 16.3363 17.0303 13.3466 13.3466 13.3466H6.67331C2.98964 13.3466 0 10.357 0 6.67331C0 2.98964 2.98964 0 6.67331 0H16.6833C18.5251 0 19.9532 1.58157 20.8341 3.19651C21.9685 5.27191 24.164 6.67331 26.6932 6.67331C29.2224 6.67331 31.4179 5.27191 32.5524 3.19651ZM6.67331 120.12C2.98964 120.12 0 123.109 0 126.793C0 130.476 2.98964 133.466 6.67331 133.466H113.446C117.13 133.466 120.12 130.476 120.12 126.793C120.12 123.109 117.13 120.12 113.446 120.12H6.67331Z" fill="white"/>
</svg>
