<svg width="1034" height="1034" viewBox="0 0 1034 1034" fill="none" xmlns="http://www.w3.org/2000/svg">
<g filter="url(#filter0_d)">
<circle cx="516.932" cy="512.932" r="266.932" fill="url(#paint0_linear)"/>
</g>
<path fill-rule="evenodd" clip-rule="evenodd" d="M572.009 536.956C572.009 567.67 547.112 592.567 516.398 592.567C485.684 592.567 460.787 567.67 460.787 536.956C460.787 506.242 485.684 481.345 516.398 481.345C547.112 481.345 572.009 506.242 572.009 536.956ZM583.131 536.956C583.131 573.81 553.252 603.689 516.398 603.689C479.545 603.689 449.665 573.81 449.665 536.956C449.665 500.103 479.545 470.223 516.398 470.223C553.252 470.223 583.131 500.103 583.131 536.956ZM485.812 536.956C490.423 536.956 494.154 533.219 494.154 528.615C494.154 524.01 490.423 520.273 485.812 520.273C481.202 520.273 477.471 524.01 477.471 528.615C477.471 533.219 481.202 536.956 485.812 536.956ZM555.326 528.615C555.326 533.219 551.594 536.956 546.984 536.956C542.374 536.956 538.643 533.219 538.643 528.615C538.643 524.01 542.374 520.273 546.984 520.273C551.594 520.273 555.326 524.01 555.326 528.615ZM516.404 573.103C530.029 573.103 541.618 563.566 544.209 550.859C545.5 544.519 527.526 542.517 516.404 542.517C505.282 542.517 487.158 543.802 488.598 550.859C491.19 563.566 502.774 573.103 516.404 573.103ZM516.404 564.762C522.543 564.762 527.526 561.981 527.526 561.981C527.526 561.981 522.543 556.42 516.404 556.42C510.259 556.42 505.282 561.981 505.282 561.981C505.282 561.981 510.259 564.762 516.404 564.762Z" fill="white"/>
<g filter="url(#filter1_dii)">
<path d="M421.381 677.011C418.547 677.011 415.797 676.661 413.131 675.961C410.464 675.261 408.297 674.327 406.631 673.161L409.881 665.861C411.447 666.894 413.264 667.727 415.331 668.361C417.397 668.994 419.431 669.311 421.431 669.311C425.231 669.311 427.131 668.361 427.131 666.461C427.131 665.461 426.581 664.727 425.481 664.261C424.414 663.761 422.681 663.244 420.281 662.711C417.647 662.144 415.447 661.544 413.681 660.911C411.914 660.244 410.397 659.194 409.131 657.761C407.864 656.327 407.231 654.394 407.231 651.961C407.231 649.827 407.814 647.911 408.981 646.211C410.147 644.477 411.881 643.111 414.181 642.111C416.514 641.111 419.364 640.611 422.731 640.611C425.031 640.611 427.297 640.877 429.531 641.411C431.764 641.911 433.731 642.661 435.431 643.661L432.381 651.011C429.047 649.211 425.814 648.311 422.681 648.311C420.714 648.311 419.281 648.611 418.381 649.211C417.481 649.777 417.031 650.527 417.031 651.461C417.031 652.394 417.564 653.094 418.631 653.561C419.697 654.027 421.414 654.511 423.781 655.011C426.447 655.577 428.647 656.194 430.381 656.861C432.147 657.494 433.664 658.527 434.931 659.961C436.231 661.361 436.881 663.277 436.881 665.711C436.881 667.811 436.297 669.711 435.131 671.411C433.964 673.111 432.214 674.477 429.881 675.511C427.547 676.511 424.714 677.011 421.381 677.011ZM441.004 649.211H450.504V676.311H441.004V649.211ZM445.754 646.211C444.02 646.211 442.62 645.727 441.554 644.761C440.487 643.794 439.954 642.594 439.954 641.161C439.954 639.727 440.487 638.527 441.554 637.561C442.62 636.594 444.02 636.111 445.754 636.111C447.487 636.111 448.887 636.577 449.954 637.511C451.02 638.411 451.554 639.577 451.554 641.011C451.554 642.511 451.02 643.761 449.954 644.761C448.887 645.727 447.487 646.211 445.754 646.211ZM485.828 649.211V671.361C485.828 676.394 484.461 680.161 481.728 682.661C478.994 685.194 475.061 686.461 469.928 686.461C467.261 686.461 464.761 686.161 462.428 685.561C460.094 684.961 458.111 684.077 456.478 682.911L459.928 676.261C461.028 677.161 462.411 677.861 464.078 678.361C465.778 678.894 467.444 679.161 469.078 679.161C471.578 679.161 473.411 678.611 474.578 677.511C475.744 676.411 476.328 674.777 476.328 672.611V671.711C474.494 673.844 471.811 674.911 468.278 674.911C465.878 674.911 463.661 674.377 461.628 673.311C459.594 672.211 457.978 670.677 456.778 668.711C455.578 666.711 454.978 664.411 454.978 661.811C454.978 659.244 455.578 656.977 456.778 655.011C457.978 653.011 459.594 651.477 461.628 650.411C463.661 649.311 465.878 648.761 468.278 648.761C472.144 648.761 474.978 650.011 476.778 652.511V649.211H485.828ZM470.528 667.361C472.228 667.361 473.628 666.844 474.728 665.811C475.861 664.777 476.428 663.444 476.428 661.811C476.428 660.177 475.878 658.861 474.778 657.861C473.678 656.827 472.261 656.311 470.528 656.311C468.794 656.311 467.361 656.827 466.228 657.861C465.128 658.861 464.578 660.177 464.578 661.811C464.578 663.444 465.144 664.777 466.278 665.811C467.411 666.844 468.828 667.361 470.528 667.361ZM509.582 648.761C512.948 648.761 515.648 649.761 517.682 651.761C519.748 653.761 520.782 656.777 520.782 660.811V676.311H511.282V662.361C511.282 658.661 509.798 656.811 506.832 656.811C505.198 656.811 503.882 657.344 502.882 658.411C501.915 659.477 501.432 661.077 501.432 663.211V676.311H491.932V649.211H500.982V652.161C502.048 651.061 503.315 650.227 504.782 649.661C506.248 649.061 507.848 648.761 509.582 648.761ZM557.897 677.011C552.697 677.011 548.647 675.594 545.747 672.761C542.88 669.927 541.447 665.911 541.447 660.711V641.311H551.347V660.411C551.347 666.011 553.563 668.811 557.997 668.811C562.397 668.811 564.597 666.011 564.597 660.411V641.311H574.347V660.711C574.347 665.911 572.897 669.927 569.997 672.761C567.13 675.594 563.097 677.011 557.897 677.011ZM597.653 648.761C600.12 648.761 602.353 649.344 604.353 650.511C606.387 651.644 607.987 653.277 609.153 655.411C610.353 657.511 610.953 659.961 610.953 662.761C610.953 665.561 610.353 668.027 609.153 670.161C607.987 672.261 606.387 673.894 604.353 675.061C602.353 676.194 600.12 676.761 597.653 676.761C594.487 676.761 591.97 675.811 590.103 673.911V686.011H580.603V649.211H589.653V651.911C591.42 649.811 594.087 648.761 597.653 648.761ZM595.653 669.211C597.32 669.211 598.687 668.644 599.753 667.511C600.82 666.344 601.353 664.761 601.353 662.761C601.353 660.761 600.82 659.194 599.753 658.061C598.687 656.894 597.32 656.311 595.653 656.311C593.987 656.311 592.62 656.894 591.553 658.061C590.487 659.194 589.953 660.761 589.953 662.761C589.953 664.761 590.487 666.344 591.553 667.511C592.62 668.644 593.987 669.211 595.653 669.211Z" fill="white"/>
</g>
<g filter="url(#filter2_dii)">
<path d="M536.103 314.829V419.829H506.403V337.779H486.903V314.829H536.103Z" fill="white"/>
</g>
<defs>
<filter id="filter0_d" x="0" y="0" width="1033.86" height="1033.86" filterUnits="userSpaceOnUse" color-interpolation-filters="sRGB">
<feFlood flood-opacity="0" result="BackgroundImageFix"/>
<feColorMatrix in="SourceAlpha" type="matrix" values="0 0 0 0 0 0 0 0 0 0 0 0 0 0 0 0 0 0 127 0"/>
<feOffset dy="4"/>
<feGaussianBlur stdDeviation="125"/>
<feColorMatrix type="matrix" values="0 0 0 0 0 0 0 0 0 0 0 0 0 0 0 0 0 0 1 0"/>
<feBlend mode="normal" in2="BackgroundImageFix" result="effect1_dropShadow"/>
<feBlend mode="normal" in="SourceGraphic" in2="effect1_dropShadow" result="shape"/>
</filter>
<filter id="filter1_dii" x="401.631" y="632.11" width="214.323" height="60.35" filterUnits="userSpaceOnUse" color-interpolation-filters="sRGB">
<feFlood flood-opacity="0" result="BackgroundImageFix"/>
<feColorMatrix in="SourceAlpha" type="matrix" values="0 0 0 0 0 0 0 0 0 0 0 0 0 0 0 0 0 0 127 0"/>
<feOffset dy="1"/>
<feGaussianBlur stdDeviation="2.5"/>
<feColorMatrix type="matrix" values="0 0 0 0 0 0 0 0 0 0 0 0 0 0 0 0 0 0 0.25 0"/>
<feBlend mode="normal" in2="BackgroundImageFix" result="effect1_dropShadow"/>
<feBlend mode="normal" in="SourceGraphic" in2="effect1_dropShadow" result="shape"/>
<feColorMatrix in="SourceAlpha" type="matrix" values="0 0 0 0 0 0 0 0 0 0 0 0 0 0 0 0 0 0 127 0" result="hardAlpha"/>
<feOffset dy="-0.5"/>
<feGaussianBlur stdDeviation="0.25"/>
<feComposite in2="hardAlpha" operator="arithmetic" k2="-1" k3="1"/>
<feColorMatrix type="matrix" values="0 0 0 0 0 0 0 0 0 0 0 0 0 0 0 0 0 0 0.15 0"/>
<feBlend mode="normal" in2="shape" result="effect2_innerShadow"/>
<feColorMatrix in="SourceAlpha" type="matrix" values="0 0 0 0 0 0 0 0 0 0 0 0 0 0 0 0 0 0 127 0" result="hardAlpha"/>
<feOffset dy="-0.5"/>
<feGaussianBlur stdDeviation="2"/>
<feComposite in2="hardAlpha" operator="arithmetic" k2="-1" k3="1"/>
<feColorMatrix type="matrix" values="0 0 0 0 0 0 0 0 0 0 0 0 0 0 0 0 0 0 0.5 0"/>
<feBlend mode="normal" in2="effect2_innerShadow" result="effect3_innerShadow"/>
</filter>
<filter id="filter2_dii" x="481.903" y="310.829" width="59.2" height="115" filterUnits="userSpaceOnUse" color-interpolation-filters="sRGB">
<feFlood flood-opacity="0" result="BackgroundImageFix"/>
<feColorMatrix in="SourceAlpha" type="matrix" values="0 0 0 0 0 0 0 0 0 0 0 0 0 0 0 0 0 0 127 0"/>
<feOffset dy="1"/>
<feGaussianBlur stdDeviation="2.5"/>
<feColorMatrix type="matrix" values="0 0 0 0 0 0 0 0 0 0 0 0 0 0 0 0 0 0 0.25 0"/>
<feBlend mode="normal" in2="BackgroundImageFix" result="effect1_dropShadow"/>
<feBlend mode="normal" in="SourceGraphic" in2="effect1_dropShadow" result="shape"/>
<feColorMatrix in="SourceAlpha" type="matrix" values="0 0 0 0 0 0 0 0 0 0 0 0 0 0 0 0 0 0 127 0" result="hardAlpha"/>
<feOffset dy="-0.5"/>
<feGaussianBlur stdDeviation="0.25"/>
<feComposite in2="hardAlpha" operator="arithmetic" k2="-1" k3="1"/>
<feColorMatrix type="matrix" values="0 0 0 0 0 0 0 0 0 0 0 0 0 0 0 0 0 0 0.15 0"/>
<feBlend mode="normal" in2="shape" result="effect2_innerShadow"/>
<feColorMatrix in="SourceAlpha" type="matrix" values="0 0 0 0 0 0 0 0 0 0 0 0 0 0 0 0 0 0 127 0" result="hardAlpha"/>
<feOffset dy="-0.5"/>
<feGaussianBlur stdDeviation="2"/>
<feComposite in2="hardAlpha" operator="arithmetic" k2="-1" k3="1"/>
<feColorMatrix type="matrix" values="0 0 0 0 0 0 0 0 0 0 0 0 0 0 0 0 0 0 0.5 0"/>
<feBlend mode="normal" in2="effect2_innerShadow" result="effect3_innerShadow"/>
</filter>
<linearGradient id="paint0_linear" x1="489.572" y1="366.12" x2="658.406" y2="683.769" gradientUnits="userSpaceOnUse">
<stop stop-color="#FC466B"/>
<stop offset="1" stop-color="#5465FF"/>
</linearGradient>
</defs>
</svg>
