<svg width="500" height="501" viewBox="0 0 500 501" fill="none" xmlns="http://www.w3.org/2000/svg">
<mask id="mask0" mask-type="alpha" maskUnits="userSpaceOnUse" x="0" y="0" width="500" height="501">
<path fill-rule="evenodd" clip-rule="evenodd" d="M250 500.868C450 500.868 500 450.868 500 250.868C500 50.8679 450 0.86792 250 0.86792C50 0.86792 0 50.8679 0 250.868C0 450.868 50 500.868 250 500.868Z" fill="black"/>
</mask>
<g mask="url(#mask0)">
<rect x="0.5" y="1.36792" width="499" height="499" fill="url(#paint0_radial)" stroke="black"/>
</g>
<g filter="url(#filter0_dii)">
<path d="M270.728 402.825C267.746 402.031 261.27 398.679 260.588 397.621C260.333 397.18 261.526 395.504 263.144 393.828C272.347 384.656 284.276 367.633 290.752 354.227C296.717 341.967 298.591 340.468 312.906 336.234C317.337 334.911 326.795 331.207 333.783 328.031C340.855 324.856 348.098 322.034 349.972 321.857C354.318 321.328 357.044 323.445 357.726 327.767C358.493 332.53 355.937 334.999 343.752 341.438C339.587 343.611 335.756 345.784 332.719 347.661C327.71 350.757 328.838 352.384 334.294 350.17C352.273 342.937 360.708 336.763 361.987 330.06C362.413 327.59 362.072 326.091 360.368 323.092C359.058 320.851 359.405 318.012 361.215 316.152L369.826 307.304C382.096 294.692 385.078 292.487 389.85 292.487C395.303 292.487 397.093 297.073 393.684 302.012C381.755 319.123 376.131 327.855 370.252 338.086C361.049 354.05 361.049 354.139 356.448 356.167C345.2 361.195 326.199 371.338 320.49 375.306C312.31 380.951 305.067 388.977 301.574 396.21L301.196 397.005C299.777 399.99 296.993 402.096 293.734 402.648C287.855 403.707 274.648 403.795 270.728 402.825Z" fill="#09E85E"/>
</g>
<g filter="url(#filter1_dii)">
<path d="M204.944 402.648C200.599 401.766 200.513 401.678 198.042 396.298C194.89 389.242 187.477 381.039 179.211 375.306C173.502 371.337 154.501 361.195 143.253 356.167C138.652 354.139 138.652 354.05 129.449 338.086C123.57 327.855 117.946 319.123 106.102 302.012C102.609 296.985 104.483 292.487 110.022 292.487C114.623 292.487 117.691 294.78 129.876 307.304L138.486 316.152C140.296 318.012 140.643 320.851 139.334 323.092C133.966 332.706 141.464 340.468 165.408 350.17C170.863 352.384 171.991 350.757 166.982 347.661C163.945 345.784 160.114 343.611 155.949 341.438C143.765 334.999 141.208 332.53 141.975 327.767C142.657 323.445 145.383 321.328 149.729 321.857C151.604 322.034 158.932 324.856 165.919 328.031C172.991 331.207 182.364 334.911 186.795 336.234C201.11 340.468 202.984 341.967 208.949 354.227C215.425 367.633 227.354 384.656 236.557 393.828C238.176 395.504 239.369 397.18 239.113 397.621C238.857 398.062 236.642 399.385 234.256 400.708C230.251 402.825 228.803 403.089 219.6 403.266C213.976 403.442 207.415 403.089 204.944 402.648Z" fill="white"/>
</g>
<g filter="url(#filter2_dii)">
<path fill-rule="evenodd" clip-rule="evenodd" d="M244.254 119.199C244.254 130.717 244.641 132.788 246.837 134.988C249.679 137.835 252.262 138.224 256.008 136.282C258.204 134.988 258.462 133.435 258.462 118.164C258.462 101.986 258.333 101.339 255.362 99.3981C251.487 96.8098 246.191 98.6216 245.158 102.892C244.641 104.575 244.254 111.822 244.254 119.199ZM180.947 132.4C180.947 134.988 183.53 138.353 191.797 146.377C198.385 152.977 203.681 156.989 205.36 156.989C208.59 156.989 213.24 152.718 213.24 149.742C213.24 146.895 192.702 126.059 188.956 125.023C185.08 124.117 180.947 127.87 180.947 132.4ZM232.244 286.275C229.273 284.593 226.173 277.475 226.173 272.428C226.173 265.31 221.136 248.874 214.677 235.544C211.189 228.167 207.702 219.884 206.927 217.037C204.602 208.754 205.248 195.424 208.348 185.847C212.223 173.941 224.236 161.387 235.861 157.116C259.499 148.316 285.075 158.54 296.184 181.317C300.188 189.341 300.446 190.765 300.446 203.577C300.446 212.528 298.488 221.371 294.709 229.484L293.213 232.696C284.429 251.462 282.104 258.321 280.554 270.357C279.262 280.581 277.712 284.334 273.966 286.405C270.737 288.087 235.215 288.087 232.244 286.275ZM268.025 264.404C269.316 253.144 272.029 244.991 280.167 227.649C284.429 218.46 287.529 209.789 287.917 206.295C289.079 193.353 282.492 181.576 270.091 174.588C263.891 171.093 261.695 170.576 253.299 170.576C245.032 170.576 242.578 171.093 236.765 174.329C225.14 180.8 218.423 191.541 218.423 203.707C218.423 209.142 219.844 213.413 225.527 225.708C234.182 244.473 237.282 253.662 238.444 264.145C238.959 268.715 242.825 272.169 247.423 272.169H253.299H259.303C263.759 272.169 267.509 268.83 268.025 264.404ZM228.631 292.361C225.66 295.079 225.531 299.091 228.373 302.197C230.181 304.268 232.765 304.527 252.528 304.527C264.67 304.527 275.262 304.009 276.037 303.491C279.137 301.421 280.299 297.279 278.749 294.044C278.446 293.484 278.198 293.024 277.86 292.646C276.322 290.925 272.923 290.868 254.078 290.549H254.078C233.927 290.291 230.698 290.549 228.631 292.361ZM231.979 314.489C231.462 316.689 232.108 318.242 234.433 320.701C237.533 323.807 238.437 323.936 251.613 323.936C267.371 323.936 271.376 322.383 271.376 316.559C271.376 309.571 268.663 308.406 252 308.406C236.112 308.406 233.658 309.183 231.979 314.489ZM152.019 191.408C149.306 193.997 149.435 198.267 152.148 201.244C154.085 203.444 156.023 203.574 170.49 203.315L170.535 203.314C186.508 202.927 186.638 202.923 188.574 199.562C190.253 196.456 190.253 195.808 188.316 192.702C186.12 189.337 185.861 189.337 169.973 189.337C157.185 189.337 153.569 189.726 152.019 191.408ZM311.809 200.209C309.872 197.103 309.872 196.456 311.551 193.35C313.486 189.988 313.617 189.985 329.331 189.598L329.376 189.597C342.939 189.338 345.781 189.597 347.718 191.408C350.689 194.126 350.818 196.844 348.106 200.726C346.297 203.444 345.264 203.574 330.151 203.574C314.263 203.574 314.005 203.574 311.809 200.209ZM294.641 154.401C293.22 152.978 292.057 150.907 292.057 149.742C292.057 146.895 312.596 126.059 316.341 125.023C320.217 124.118 324.35 127.871 324.35 132.141C324.35 134.6 321.379 138.353 313.629 146.248C302.262 157.637 299.162 158.931 294.641 154.401Z" fill="white"/>
</g>
<defs>
<filter id="filter0_dii" x="259.304" y="291.987" width="137.365" height="113.764" filterUnits="userSpaceOnUse" color-interpolation-filters="sRGB">
<feFlood flood-opacity="0" result="BackgroundImageFix"/>
<feColorMatrix in="SourceAlpha" type="matrix" values="0 0 0 0 0 0 0 0 0 0 0 0 0 0 0 0 0 0 127 0"/>
<feOffset dy="1"/>
<feGaussianBlur stdDeviation="0.625"/>
<feColorMatrix type="matrix" values="0 0 0 0 0 0 0 0 0 0 0 0 0 0 0 0 0 0 0.25 0"/>
<feBlend mode="normal" in2="BackgroundImageFix" result="effect1_dropShadow"/>
<feBlend mode="normal" in="SourceGraphic" in2="effect1_dropShadow" result="shape"/>
<feColorMatrix in="SourceAlpha" type="matrix" values="0 0 0 0 0 0 0 0 0 0 0 0 0 0 0 0 0 0 127 0" result="hardAlpha"/>
<feOffset dy="-0.5"/>
<feGaussianBlur stdDeviation="0.25"/>
<feComposite in2="hardAlpha" operator="arithmetic" k2="-1" k3="1"/>
<feColorMatrix type="matrix" values="0 0 0 0 0 0 0 0 0 0 0 0 0 0 0 0 0 0 0.15 0"/>
<feBlend mode="normal" in2="shape" result="effect2_innerShadow"/>
<feColorMatrix in="SourceAlpha" type="matrix" values="0 0 0 0 0 0 0 0 0 0 0 0 0 0 0 0 0 0 127 0" result="hardAlpha"/>
<feOffset dy="-0.5"/>
<feGaussianBlur stdDeviation="0.5"/>
<feComposite in2="hardAlpha" operator="arithmetic" k2="-1" k3="1"/>
<feColorMatrix type="matrix" values="0 0 0 0 0.92549 0 0 0 0 0.215686 0 0 0 0 0.313726 0 0 0 0.5 0"/>
<feBlend mode="normal" in2="effect2_innerShadow" result="effect3_innerShadow"/>
</filter>
<filter id="filter1_dii" x="103.083" y="291.987" width="137.314" height="113.575" filterUnits="userSpaceOnUse" color-interpolation-filters="sRGB">
<feFlood flood-opacity="0" result="BackgroundImageFix"/>
<feColorMatrix in="SourceAlpha" type="matrix" values="0 0 0 0 0 0 0 0 0 0 0 0 0 0 0 0 0 0 127 0"/>
<feOffset dy="1"/>
<feGaussianBlur stdDeviation="0.625"/>
<feColorMatrix type="matrix" values="0 0 0 0 0 0 0 0 0 0 0 0 0 0 0 0 0 0 0.25 0"/>
<feBlend mode="normal" in2="BackgroundImageFix" result="effect1_dropShadow"/>
<feBlend mode="normal" in="SourceGraphic" in2="effect1_dropShadow" result="shape"/>
<feColorMatrix in="SourceAlpha" type="matrix" values="0 0 0 0 0 0 0 0 0 0 0 0 0 0 0 0 0 0 127 0" result="hardAlpha"/>
<feOffset dy="-0.5"/>
<feGaussianBlur stdDeviation="0.25"/>
<feComposite in2="hardAlpha" operator="arithmetic" k2="-1" k3="1"/>
<feColorMatrix type="matrix" values="0 0 0 0 0 0 0 0 0 0 0 0 0 0 0 0 0 0 0.15 0"/>
<feBlend mode="normal" in2="shape" result="effect2_innerShadow"/>
<feColorMatrix in="SourceAlpha" type="matrix" values="0 0 0 0 0 0 0 0 0 0 0 0 0 0 0 0 0 0 127 0" result="hardAlpha"/>
<feOffset dy="-0.5"/>
<feGaussianBlur stdDeviation="0.5"/>
<feComposite in2="hardAlpha" operator="arithmetic" k2="-1" k3="1"/>
<feColorMatrix type="matrix" values="0 0 0 0 0.92549 0 0 0 0 0.215686 0 0 0 0 0.313726 0 0 0 0.5 0"/>
<feBlend mode="normal" in2="effect2_innerShadow" result="effect3_innerShadow"/>
</filter>
<filter id="filter2_dii" x="148.798" y="97.7013" width="202.5" height="228.485" filterUnits="userSpaceOnUse" color-interpolation-filters="sRGB">
<feFlood flood-opacity="0" result="BackgroundImageFix"/>
<feColorMatrix in="SourceAlpha" type="matrix" values="0 0 0 0 0 0 0 0 0 0 0 0 0 0 0 0 0 0 127 0"/>
<feOffset dy="1"/>
<feGaussianBlur stdDeviation="0.625"/>
<feColorMatrix type="matrix" values="0 0 0 0 0 0 0 0 0 0 0 0 0 0 0 0 0 0 0.25 0"/>
<feBlend mode="normal" in2="BackgroundImageFix" result="effect1_dropShadow"/>
<feBlend mode="normal" in="SourceGraphic" in2="effect1_dropShadow" result="shape"/>
<feColorMatrix in="SourceAlpha" type="matrix" values="0 0 0 0 0 0 0 0 0 0 0 0 0 0 0 0 0 0 127 0" result="hardAlpha"/>
<feOffset dy="-0.5"/>
<feGaussianBlur stdDeviation="0.25"/>
<feComposite in2="hardAlpha" operator="arithmetic" k2="-1" k3="1"/>
<feColorMatrix type="matrix" values="0 0 0 0 0 0 0 0 0 0 0 0 0 0 0 0 0 0 0.15 0"/>
<feBlend mode="normal" in2="shape" result="effect2_innerShadow"/>
<feColorMatrix in="SourceAlpha" type="matrix" values="0 0 0 0 0 0 0 0 0 0 0 0 0 0 0 0 0 0 127 0" result="hardAlpha"/>
<feOffset dy="-0.5"/>
<feGaussianBlur stdDeviation="0.5"/>
<feComposite in2="hardAlpha" operator="arithmetic" k2="-1" k3="1"/>
<feColorMatrix type="matrix" values="0 0 0 0 0.92549 0 0 0 0 0.215686 0 0 0 0 0.313726 0 0 0 0.5 0"/>
<feBlend mode="normal" in2="effect2_innerShadow" result="effect3_innerShadow"/>
</filter>
<radialGradient id="paint0_radial" cx="0" cy="0" r="1" gradientUnits="userSpaceOnUse" gradientTransform="translate(250 0.86792) rotate(90) scale(218.75)">
<stop stop-color="#3C4858"/>
<stop offset="1" stop-color="#1F2D3D"/>
</radialGradient>
</defs>
</svg>
