<svg width="74" height="90" viewBox="0 0 74 90" fill="none" xmlns="http://www.w3.org/2000/svg">
<path fill-rule="evenodd" clip-rule="evenodd" d="M65.4546 0H22.8509L0 22.8509V81.8182C0 86.3369 3.66312 90 8.18182 90H65.4546C69.9732 90 73.6364 86.3369 73.6364 81.8182V8.18182C73.6364 3.66312 69.9732 0 65.4546 0ZM8.1818 81.8182V26.2399L26.2399 8.1818H65.4545V81.8182H8.1818ZM53.1818 12.2727H61.3636V36.8182H53.1818V12.2727ZM49.091 12.2727H40.9092V36.8182H49.091V12.2727ZM28.6364 12.2727H36.8182V36.8182H28.6364V12.2727ZM24.5454 24.5455H16.3636V40.9091H24.5454V24.5455Z" fill="black"/>
</svg>
